<?xml version="1.0" encoding="utf-8"?>
<!-- Generator: $$$/GeneralStr/196=Adobe Illustrator 27.6.0, SVG Export Plug-In . SVG Version: 6.00 Build 0)  -->
<svg version="1.1" id="Ebene_1" xmlns="http://www.w3.org/2000/svg" xmlns:xlink="http://www.w3.org/1999/xlink" x="0px" y="0px"
	 viewBox="0 0 48 48" style="enable-background:new 0 0 48 48;" xml:space="preserve">
<path d="M23,36l5-12h-3v-8l-5,12h3V36z M15.5,44c-0.4,0-0.8-0.1-1.1-0.4C14.1,43.3,14,43,14,42.5V8.7c0-0.4,0.1-0.8,0.4-1.1
	c0.3-0.3,0.6-0.4,1.1-0.4H20V4h8v3.2h4.5c0.4,0,0.8,0.1,1.1,0.4C33.9,7.9,34,8.3,34,8.7v33.8c0,0.4-0.1,0.8-0.4,1.1
	C33.3,43.9,33,44,32.5,44H15.5z M17,41h14V10.2H17V41z M17,41h14H17z"/>
<path d="M26.3,37.5h-3v-1h3v-3h1v3h3v1h-3v3h-1L26.3,37.5L26.3,37.5z"/>
</svg>
