<?xml version="1.0" encoding="utf-8"?>
<!-- Generator: $$$/GeneralStr/196=Adobe Illustrator 27.6.0, SVG Export Plug-In . SVG Version: 6.00 Build 0)  -->
<svg version="1.1" id="Ebene_1" xmlns="http://www.w3.org/2000/svg" xmlns:xlink="http://www.w3.org/1999/xlink" x="0px" y="0px"
	 viewBox="0 0 24 24" style="enable-background:new 0 0 24 24;" xml:space="preserve">
<path d="M8.3,21.9l2.1-2.6H9.1v-2L7,19.9h1.2V21.9z M6.2,16h5v-3.3h-5V16z M6.2,21.9h5v-4.6h-5V21.9z M4.5,23.2V12.7
	c0-0.4,0.2-0.7,0.5-0.9c0.3-0.3,0.7-0.4,1.2-0.4h5c0.5,0,0.9,0.1,1.2,0.4c0.3,0.3,0.5,0.6,0.5,0.9v4.6h1c0.4,0,0.7,0.1,1,0.3
	c0.3,0.2,0.4,0.5,0.4,0.8v3.1c0,0.2,0.1,0.4,0.3,0.5c0.2,0.2,0.4,0.2,0.6,0.2c0.2,0,0.5-0.1,0.7-0.2c0.2-0.2,0.3-0.3,0.3-0.5v-6.2
	H17c-0.2,0-0.4-0.1-0.6-0.2c-0.2-0.1-0.2-0.3-0.2-0.5v-1.3h0.4v-1h0.8v1h0.8v-1h0.8v1h0.4v1.3c0,0.2-0.1,0.3-0.2,0.5
	c-0.2,0.1-0.4,0.2-0.6,0.2h-0.2v6.2c0,0.5-0.2,0.9-0.6,1.2s-0.9,0.5-1.6,0.5c-0.6,0-1.1-0.2-1.5-0.5s-0.6-0.8-0.6-1.2v-3.1
	c0-0.1,0-0.1-0.1-0.1c0,0-0.1,0-0.2,0h-1v5H4.5z M11.2,21.9h-5H11.2z"/>
<path d="M3,2.8l0-2l3,0l0,2L3,2.8z M6.1,8.1L4.7,6.7l2.1-2.1L8.3,6L6.1,8.1z M12,5.8c-1.4,0-2.6-0.5-3.5-1.5S7,2.2,7,0.8l2,0
	c0,0.8,0.3,1.5,0.9,2.1c0.6,0.6,1.3,0.9,2.1,0.9c0.8,0,1.5-0.3,2.1-0.9S15,1.6,15,0.8l2,0c0,1.4-0.5,2.6-1.5,3.5S13.4,5.8,12,5.8z
	 M11,9.8l0-3l2,0l0,3L11,9.8z M17.9,8.1L15.8,6l1.4-1.4l2.1,2.1L17.9,8.1z M18,2.8l0-2l3,0l0,2L18,2.8z"/>
</svg>
