<?xml version="1.0" encoding="utf-8"?>
<!-- Generator: $$$/GeneralStr/196=Adobe Illustrator 27.6.0, SVG Export Plug-In . SVG Version: 6.00 Build 0)  -->
<svg version="1.1" id="Ebene_1" xmlns="http://www.w3.org/2000/svg" xmlns:xlink="http://www.w3.org/1999/xlink" x="0px" y="0px"
	 viewBox="0 0 48 48" style="enable-background:new 0 0 48 48;" xml:space="preserve">
<path d="M22.1,39h3.8v-4.1l7.1-7.8v-9.6H15v9.6l7.1,7.8V39z M19.1,42v-5.9L12,28.3V17.5c0-0.8,0.3-1.5,0.9-2.1
	c0.6-0.6,1.3-0.9,2.1-0.9h3.6L17.1,16V6h3v8.6h7.8V6h3v10l-1.5-1.5H33c0.8,0,1.5,0.3,2.1,0.9c0.6,0.6,0.9,1.3,0.9,2.1v10.8l-7.1,7.8
	V42H19.1z"/>
<path d="M37.3,41H33v-1.4h4.3v-4.3h1.4v4.3H43V41h-4.3v4.3h-1.4V41z"/>
</svg>
