<?xml version="1.0" encoding="UTF-8"?>
<svg id="Ebene_1" xmlns="http://www.w3.org/2000/svg" height="512" width="512" viewBox="0 0 512 512">
    <defs>
        <style>.cls-1{fill:#ffffff;}</style>
    </defs>
    <path class="cls-1" d="m139.64,273.29h-46.41v65.62h54.24v29.59h-73.88v-213.28h73.33v29.88h-53.7v58.89h46.41v29.3Z"/>
    <path class="cls-1"
          d="m182.24,245.6h11.49c5.79-.1,10.39-2.93,13.77-8.5,3.39-5.57,5.08-13.62,5.08-24.17s-1.41-18.04-4.23-23.66c-2.82-5.61-7.13-8.42-12.92-8.42-5.07,0-9.23,2.76-12.49,8.28-3.26,5.52-4.89,12.72-4.89,21.61h-18.86c0-10.94,1.54-20.9,4.62-29.88,3.08-8.98,7.37-15.99,12.88-21.02,5.51-5.03,11.68-7.54,18.51-7.54,11.28,0,20.14,5.35,26.58,16.04s9.66,25.56,9.66,44.6c0,9.57-1.62,18.58-4.85,27.03-3.23,8.45-7.41,14.82-12.53,19.12,6.21,4.01,10.93,10.3,14.16,18.9,3.23,8.59,4.85,18.85,4.85,30.76,0,19.14-3.48,34.38-10.44,45.7-6.96,11.33-16.1,16.99-27.43,16.99s-19.76-5.47-26.69-16.41c-6.93-10.94-10.4-25.49-10.4-43.65h18.86c0,9.38,1.67,16.99,5.01,22.85s7.82,8.79,13.46,8.79,10.45-2.93,13.81-8.79c3.36-5.86,5.04-14.36,5.04-25.49s-1.76-19.87-5.28-25.93c-3.52-6.05-8.74-9.08-15.68-9.08h-11.1v-28.12Z"/>
    <path class="cls-1"
          d="m253.79,368.5v-213.28h33.37c9.98,0,18.84,4.2,26.58,12.6,7.73,8.4,13.72,20.31,17.96,35.74,4.24,15.43,6.36,33.11,6.36,53.03v10.69c0,20.21-2.13,37.99-6.4,53.32-4.27,15.33-10.35,27.15-18.24,35.45-7.89,8.3-16.93,12.45-27.12,12.45h-32.52Zm19.63-183.4v153.81h12.8c10.29,0,18.2-6.08,23.71-18.24s8.31-29.61,8.42-52.37v-11.87c0-23.14-2.67-40.82-7.99-53.03-5.33-12.21-13.06-18.31-23.2-18.31h-13.74Z"/>
    <path class="cls-1"
          d="m443.84,299.07c-1.14,22.76-5.59,40.5-13.35,53.25-7.76,12.74-18.08,19.12-30.96,19.12-9,0-16.93-4.03-23.78-12.08-6.86-8.06-12.15-19.51-15.87-34.35-3.72-14.84-5.67-32.08-5.82-51.71v-19.92c0-20.12,1.89-37.84,5.67-53.17,3.78-15.33,9.2-27.15,16.26-35.45,7.06-8.3,15.22-12.45,24.48-12.45,12.47,0,22.5,6.37,30.11,19.12,7.61,12.74,12.03,30.79,13.27,54.13h-19.56c-.93-15.33-3.3-26.39-7.1-33.18-3.8-6.79-9.38-10.18-16.72-10.18-8.54,0-15.09,5.89-19.67,17.67-4.58,11.78-6.92,29.06-7.02,51.83v18.92c0,23.07,2.19,40.66,6.56,52.78,4.37,12.12,10.77,18.18,19.21,18.18,7.71,0,13.5-3.27,17.38-9.81,3.88-6.54,6.34-17.43,7.37-32.67h19.56Z"/>
</svg>
